<mxfile host="app.diagrams.net" modified="2024-03-23T05:03:16.405Z" agent="Mozilla/5.0 (Macintosh; Intel Mac OS X 10_15_7) AppleWebKit/537.36 (KHTML, like Gecko) Chrome/123.0.0.0 Safari/537.36" etag="scNnzrs9jhNhV6PGv2LY" version="24.0.8" type="github">
  <diagram name="페이지-1" id="r6DfL3PB8OW9n6T8iQzD">
    <mxGraphModel dx="1727" dy="-740" grid="0" gridSize="10" guides="1" tooltips="1" connect="1" arrows="1" fold="1" page="1" pageScale="1" pageWidth="1600" pageHeight="900" math="0" shadow="0">
      <root>
        <mxCell id="0" />
        <mxCell id="1" parent="0" />
        <mxCell id="EUwqJAAsOdJ6edNQOykV-88" value="application" style="ellipse;whiteSpace=wrap;html=1;align=center;" parent="1" vertex="1">
          <mxGeometry x="316" y="2021.96" width="67" height="28" as="geometry" />
        </mxCell>
        <mxCell id="P7TgxhgFr9sDiZiFOefg-29" style="edgeStyle=orthogonalEdgeStyle;rounded=0;orthogonalLoop=1;jettySize=auto;html=1;entryX=0;entryY=0.5;entryDx=0;entryDy=0;endArrow=none;endFill=0;" parent="1" source="EUwqJAAsOdJ6edNQOykV-24" target="P7TgxhgFr9sDiZiFOefg-27" edge="1">
          <mxGeometry relative="1" as="geometry" />
        </mxCell>
        <mxCell id="EUwqJAAsOdJ6edNQOykV-24" value="Course" style="whiteSpace=wrap;html=1;align=center;" parent="1" vertex="1">
          <mxGeometry x="818.5" y="2480.96" width="100" height="40" as="geometry" />
        </mxCell>
        <mxCell id="EUwqJAAsOdJ6edNQOykV-120" style="edgeStyle=orthogonalEdgeStyle;rounded=0;orthogonalLoop=1;jettySize=auto;html=1;endArrow=none;endFill=0;" parent="1" source="EUwqJAAsOdJ6edNQOykV-25" target="EUwqJAAsOdJ6edNQOykV-28" edge="1">
          <mxGeometry relative="1" as="geometry" />
        </mxCell>
        <mxCell id="EUwqJAAsOdJ6edNQOykV-25" value="Department" style="whiteSpace=wrap;html=1;align=center;" parent="1" vertex="1">
          <mxGeometry x="818.5" y="2214.96" width="100" height="40" as="geometry" />
        </mxCell>
        <mxCell id="EUwqJAAsOdJ6edNQOykV-34" style="rounded=0;orthogonalLoop=1;jettySize=auto;html=1;entryX=0;entryY=0.5;entryDx=0;entryDy=0;endArrow=none;endFill=0;exitX=1;exitY=0;exitDx=0;exitDy=0;" parent="1" source="EUwqJAAsOdJ6edNQOykV-26" target="EUwqJAAsOdJ6edNQOykV-27" edge="1">
          <mxGeometry relative="1" as="geometry" />
        </mxCell>
        <mxCell id="P7TgxhgFr9sDiZiFOefg-3" style="rounded=0;orthogonalLoop=1;jettySize=auto;html=1;entryX=0;entryY=0.5;entryDx=0;entryDy=0;endArrow=none;endFill=0;" parent="1" source="EUwqJAAsOdJ6edNQOykV-26" target="P7TgxhgFr9sDiZiFOefg-2" edge="1">
          <mxGeometry relative="1" as="geometry">
            <mxPoint x="613" y="2355.96" as="targetPoint" />
          </mxGeometry>
        </mxCell>
        <mxCell id="P7TgxhgFr9sDiZiFOefg-14" style="edgeStyle=orthogonalEdgeStyle;rounded=0;orthogonalLoop=1;jettySize=auto;html=1;endArrow=none;endFill=0;" parent="1" source="EUwqJAAsOdJ6edNQOykV-26" target="P7TgxhgFr9sDiZiFOefg-13" edge="1">
          <mxGeometry relative="1" as="geometry" />
        </mxCell>
        <mxCell id="EUwqJAAsOdJ6edNQOykV-26" value="Student" style="whiteSpace=wrap;html=1;align=center;" parent="1" vertex="1">
          <mxGeometry x="393.75" y="2215.96" width="100" height="40" as="geometry" />
        </mxCell>
        <mxCell id="EUwqJAAsOdJ6edNQOykV-104" style="rounded=0;orthogonalLoop=1;jettySize=auto;html=1;entryX=0.5;entryY=0;entryDx=0;entryDy=0;endArrow=none;endFill=0;exitX=1;exitY=0.5;exitDx=0;exitDy=0;" parent="1" source="EUwqJAAsOdJ6edNQOykV-27" target="EUwqJAAsOdJ6edNQOykV-25" edge="1">
          <mxGeometry relative="1" as="geometry" />
        </mxCell>
        <mxCell id="EUwqJAAsOdJ6edNQOykV-27" value="속한다." style="shape=rhombus;perimeter=rhombusPerimeter;whiteSpace=wrap;html=1;align=center;" parent="1" vertex="1">
          <mxGeometry x="617" y="2102.96" width="120" height="60" as="geometry" />
        </mxCell>
        <mxCell id="EUwqJAAsOdJ6edNQOykV-121" style="rounded=0;orthogonalLoop=1;jettySize=auto;html=1;endArrow=none;endFill=0;" parent="1" source="EUwqJAAsOdJ6edNQOykV-28" target="EUwqJAAsOdJ6edNQOykV-24" edge="1">
          <mxGeometry relative="1" as="geometry" />
        </mxCell>
        <mxCell id="EUwqJAAsOdJ6edNQOykV-28" value="Offering" style="shape=rhombus;perimeter=rhombusPerimeter;whiteSpace=wrap;html=1;align=center;" parent="1" vertex="1">
          <mxGeometry x="808.5" y="2334.96" width="120" height="60" as="geometry" />
        </mxCell>
        <mxCell id="EUwqJAAsOdJ6edNQOykV-51" style="rounded=0;orthogonalLoop=1;jettySize=auto;html=1;entryX=0.5;entryY=0;entryDx=0;entryDy=0;endArrow=none;endFill=0;" parent="1" source="EUwqJAAsOdJ6edNQOykV-37" target="EUwqJAAsOdJ6edNQOykV-26" edge="1">
          <mxGeometry relative="1" as="geometry" />
        </mxCell>
        <mxCell id="EUwqJAAsOdJ6edNQOykV-49" style="rounded=0;orthogonalLoop=1;jettySize=auto;html=1;endArrow=none;endFill=0;" parent="1" source="EUwqJAAsOdJ6edNQOykV-40" edge="1">
          <mxGeometry relative="1" as="geometry">
            <mxPoint x="443.75" y="2215.96" as="targetPoint" />
          </mxGeometry>
        </mxCell>
        <mxCell id="EUwqJAAsOdJ6edNQOykV-40" value="&lt;u&gt;number&lt;/u&gt;" style="ellipse;whiteSpace=wrap;html=1;align=center;" parent="1" vertex="1">
          <mxGeometry x="260" y="2158.96" width="67" height="28" as="geometry" />
        </mxCell>
        <mxCell id="EUwqJAAsOdJ6edNQOykV-45" style="rounded=0;orthogonalLoop=1;jettySize=auto;html=1;entryX=0.5;entryY=1;entryDx=0;entryDy=0;startArrow=none;startFill=0;endArrow=none;endFill=0;exitX=0.5;exitY=0;exitDx=0;exitDy=0;" parent="1" source="EUwqJAAsOdJ6edNQOykV-48" target="EUwqJAAsOdJ6edNQOykV-42" edge="1">
          <mxGeometry relative="1" as="geometry">
            <mxPoint x="231.50000000000023" y="2144.96" as="sourcePoint" />
          </mxGeometry>
        </mxCell>
        <mxCell id="EUwqJAAsOdJ6edNQOykV-47" style="rounded=0;orthogonalLoop=1;jettySize=auto;html=1;entryX=0.5;entryY=1;entryDx=0;entryDy=0;endArrow=none;endFill=0;exitX=0.5;exitY=0;exitDx=0;exitDy=0;" parent="1" source="EUwqJAAsOdJ6edNQOykV-48" target="EUwqJAAsOdJ6edNQOykV-43" edge="1">
          <mxGeometry relative="1" as="geometry">
            <mxPoint x="295.2933423636646" y="2152.3695249717393" as="sourcePoint" />
          </mxGeometry>
        </mxCell>
        <mxCell id="EUwqJAAsOdJ6edNQOykV-42" value="first" style="ellipse;whiteSpace=wrap;html=1;align=center;" parent="1" vertex="1">
          <mxGeometry x="179" y="2109.96" width="51" height="28" as="geometry" />
        </mxCell>
        <mxCell id="EUwqJAAsOdJ6edNQOykV-43" value="last" style="ellipse;whiteSpace=wrap;html=1;align=center;" parent="1" vertex="1">
          <mxGeometry x="234" y="2107.96" width="51" height="28" as="geometry" />
        </mxCell>
        <mxCell id="EUwqJAAsOdJ6edNQOykV-50" style="rounded=0;orthogonalLoop=1;jettySize=auto;html=1;endArrow=none;endFill=0;" parent="1" source="EUwqJAAsOdJ6edNQOykV-48" edge="1">
          <mxGeometry relative="1" as="geometry">
            <mxPoint x="443.75" y="2214.96" as="targetPoint" />
          </mxGeometry>
        </mxCell>
        <mxCell id="EUwqJAAsOdJ6edNQOykV-48" value="name" style="ellipse;shape=doubleEllipse;margin=3;whiteSpace=wrap;html=1;align=center;" parent="1" vertex="1">
          <mxGeometry x="194" y="2169.96" width="69" height="33" as="geometry" />
        </mxCell>
        <mxCell id="EUwqJAAsOdJ6edNQOykV-61" style="rounded=0;orthogonalLoop=1;jettySize=auto;html=1;endArrow=none;endFill=0;" parent="1" source="EUwqJAAsOdJ6edNQOykV-53" target="EUwqJAAsOdJ6edNQOykV-60" edge="1">
          <mxGeometry relative="1" as="geometry" />
        </mxCell>
        <mxCell id="EUwqJAAsOdJ6edNQOykV-53" value="Phone" style="ellipse;shape=doubleEllipse;margin=3;whiteSpace=wrap;html=1;align=center;" parent="1" vertex="1">
          <mxGeometry x="365" y="1970.96" width="69" height="33" as="geometry" />
        </mxCell>
        <mxCell id="EUwqJAAsOdJ6edNQOykV-62" style="rounded=0;orthogonalLoop=1;jettySize=auto;html=1;entryX=0.5;entryY=0;entryDx=0;entryDy=0;endArrow=none;endFill=0;" parent="1" source="EUwqJAAsOdJ6edNQOykV-54" target="EUwqJAAsOdJ6edNQOykV-60" edge="1">
          <mxGeometry relative="1" as="geometry" />
        </mxCell>
        <mxCell id="EUwqJAAsOdJ6edNQOykV-54" value="Address" style="ellipse;shape=doubleEllipse;margin=3;whiteSpace=wrap;html=1;align=center;" parent="1" vertex="1">
          <mxGeometry x="457" y="1970.96" width="69" height="33" as="geometry" />
        </mxCell>
        <mxCell id="EUwqJAAsOdJ6edNQOykV-59" style="rounded=0;orthogonalLoop=1;jettySize=auto;html=1;entryX=0.5;entryY=0;entryDx=0;entryDy=0;endArrow=none;endFill=0;" parent="1" source="EUwqJAAsOdJ6edNQOykV-56" target="EUwqJAAsOdJ6edNQOykV-53" edge="1">
          <mxGeometry relative="1" as="geometry" />
        </mxCell>
        <mxCell id="EUwqJAAsOdJ6edNQOykV-56" value="permanent" style="ellipse;whiteSpace=wrap;html=1;align=center;" parent="1" vertex="1">
          <mxGeometry x="379.25" y="1924.96" width="51" height="28" as="geometry" />
        </mxCell>
        <mxCell id="EUwqJAAsOdJ6edNQOykV-58" style="rounded=0;orthogonalLoop=1;jettySize=auto;html=1;endArrow=none;endFill=0;" parent="1" source="EUwqJAAsOdJ6edNQOykV-57" target="EUwqJAAsOdJ6edNQOykV-53" edge="1">
          <mxGeometry relative="1" as="geometry" />
        </mxCell>
        <mxCell id="EUwqJAAsOdJ6edNQOykV-57" value="current" style="ellipse;whiteSpace=wrap;html=1;align=center;" parent="1" vertex="1">
          <mxGeometry x="316" y="1927.96" width="51" height="28" as="geometry" />
        </mxCell>
        <mxCell id="EUwqJAAsOdJ6edNQOykV-76" style="rounded=0;orthogonalLoop=1;jettySize=auto;html=1;endArrow=none;endFill=0;" parent="1" source="EUwqJAAsOdJ6edNQOykV-60" target="EUwqJAAsOdJ6edNQOykV-26" edge="1">
          <mxGeometry relative="1" as="geometry" />
        </mxCell>
        <mxCell id="EUwqJAAsOdJ6edNQOykV-60" value="&lt;u&gt;AddressPhone&lt;/u&gt;" style="ellipse;whiteSpace=wrap;html=1;align=center;" parent="1" vertex="1">
          <mxGeometry x="410.25" y="2045.96" width="67" height="28" as="geometry" />
        </mxCell>
        <mxCell id="EUwqJAAsOdJ6edNQOykV-74" style="rounded=0;orthogonalLoop=1;jettySize=auto;html=1;entryX=0.5;entryY=0;entryDx=0;entryDy=0;endArrow=none;endFill=0;" parent="1" source="EUwqJAAsOdJ6edNQOykV-63" target="EUwqJAAsOdJ6edNQOykV-54" edge="1">
          <mxGeometry relative="1" as="geometry" />
        </mxCell>
        <mxCell id="EUwqJAAsOdJ6edNQOykV-63" value="current" style="ellipse;whiteSpace=wrap;html=1;align=center;" parent="1" vertex="1">
          <mxGeometry x="452.25" y="1924.96" width="51" height="28" as="geometry" />
        </mxCell>
        <mxCell id="EUwqJAAsOdJ6edNQOykV-75" style="rounded=0;orthogonalLoop=1;jettySize=auto;html=1;entryX=0.5;entryY=0;entryDx=0;entryDy=0;endArrow=none;endFill=0;" parent="1" source="EUwqJAAsOdJ6edNQOykV-65" target="EUwqJAAsOdJ6edNQOykV-54" edge="1">
          <mxGeometry relative="1" as="geometry" />
        </mxCell>
        <mxCell id="EUwqJAAsOdJ6edNQOykV-65" value="permanent" style="ellipse;shape=doubleEllipse;margin=3;whiteSpace=wrap;html=1;align=center;" parent="1" vertex="1">
          <mxGeometry x="526" y="1927.96" width="63.25" height="30" as="geometry" />
        </mxCell>
        <mxCell id="EUwqJAAsOdJ6edNQOykV-69" style="rounded=0;orthogonalLoop=1;jettySize=auto;html=1;endArrow=none;endFill=0;" parent="1" source="EUwqJAAsOdJ6edNQOykV-66" target="EUwqJAAsOdJ6edNQOykV-65" edge="1">
          <mxGeometry relative="1" as="geometry" />
        </mxCell>
        <mxCell id="EUwqJAAsOdJ6edNQOykV-66" value="city" style="ellipse;whiteSpace=wrap;html=1;align=center;" parent="1" vertex="1">
          <mxGeometry x="485" y="1860.96" width="51" height="28" as="geometry" />
        </mxCell>
        <mxCell id="EUwqJAAsOdJ6edNQOykV-72" style="rounded=0;orthogonalLoop=1;jettySize=auto;html=1;entryX=0.5;entryY=0;entryDx=0;entryDy=0;endArrow=none;endFill=0;" parent="1" source="EUwqJAAsOdJ6edNQOykV-67" target="EUwqJAAsOdJ6edNQOykV-65" edge="1">
          <mxGeometry relative="1" as="geometry" />
        </mxCell>
        <mxCell id="EUwqJAAsOdJ6edNQOykV-67" value="state" style="ellipse;whiteSpace=wrap;html=1;align=center;" parent="1" vertex="1">
          <mxGeometry x="544.25" y="1857.96" width="51" height="28" as="geometry" />
        </mxCell>
        <mxCell id="EUwqJAAsOdJ6edNQOykV-73" style="rounded=0;orthogonalLoop=1;jettySize=auto;html=1;entryX=0.5;entryY=0;entryDx=0;entryDy=0;endArrow=none;endFill=0;" parent="1" source="EUwqJAAsOdJ6edNQOykV-68" target="EUwqJAAsOdJ6edNQOykV-65" edge="1">
          <mxGeometry relative="1" as="geometry" />
        </mxCell>
        <mxCell id="EUwqJAAsOdJ6edNQOykV-68" value="zip-code" style="ellipse;whiteSpace=wrap;html=1;align=center;" parent="1" vertex="1">
          <mxGeometry x="603" y="1860.96" width="51" height="28" as="geometry" />
        </mxCell>
        <mxCell id="EUwqJAAsOdJ6edNQOykV-95" style="rounded=0;orthogonalLoop=1;jettySize=auto;html=1;entryX=0.5;entryY=0;entryDx=0;entryDy=0;endArrow=none;endFill=0;" parent="1" source="EUwqJAAsOdJ6edNQOykV-78" target="EUwqJAAsOdJ6edNQOykV-26" edge="1">
          <mxGeometry relative="1" as="geometry" />
        </mxCell>
        <mxCell id="EUwqJAAsOdJ6edNQOykV-94" style="rounded=0;orthogonalLoop=1;jettySize=auto;html=1;endArrow=none;endFill=0;entryX=0.5;entryY=1;entryDx=0;entryDy=0;" parent="1" source="EUwqJAAsOdJ6edNQOykV-79" target="EUwqJAAsOdJ6edNQOykV-26" edge="1">
          <mxGeometry relative="1" as="geometry">
            <mxPoint x="449.47368421052647" y="2258.5389473684213" as="targetPoint" />
          </mxGeometry>
        </mxCell>
        <mxCell id="EUwqJAAsOdJ6edNQOykV-79" value="class" style="ellipse;whiteSpace=wrap;html=1;align=center;" parent="1" vertex="1">
          <mxGeometry x="218" y="2306.96" width="67" height="28" as="geometry" />
        </mxCell>
        <mxCell id="EUwqJAAsOdJ6edNQOykV-92" style="rounded=0;orthogonalLoop=1;jettySize=auto;html=1;entryX=0;entryY=0.5;entryDx=0;entryDy=0;endArrow=none;endFill=0;" parent="1" source="EUwqJAAsOdJ6edNQOykV-80" target="EUwqJAAsOdJ6edNQOykV-26" edge="1">
          <mxGeometry relative="1" as="geometry" />
        </mxCell>
        <mxCell id="EUwqJAAsOdJ6edNQOykV-80" value="major dapartmnet" style="ellipse;whiteSpace=wrap;html=1;align=center;" parent="1" vertex="1">
          <mxGeometry x="205" y="2270.96" width="67" height="28" as="geometry" />
        </mxCell>
        <mxCell id="EUwqJAAsOdJ6edNQOykV-90" style="rounded=0;orthogonalLoop=1;jettySize=auto;html=1;entryX=0;entryY=0.5;entryDx=0;entryDy=0;endArrow=none;endFill=0;" parent="1" source="EUwqJAAsOdJ6edNQOykV-82" target="EUwqJAAsOdJ6edNQOykV-26" edge="1">
          <mxGeometry relative="1" as="geometry" />
        </mxCell>
        <mxCell id="EUwqJAAsOdJ6edNQOykV-82" value="minor dapartmnet" style="ellipse;whiteSpace=wrap;html=1;align=center;" parent="1" vertex="1">
          <mxGeometry x="202" y="2221.96" width="67" height="28" as="geometry" />
        </mxCell>
        <mxCell id="EUwqJAAsOdJ6edNQOykV-99" style="rounded=0;orthogonalLoop=1;jettySize=auto;html=1;endArrow=none;endFill=0;" parent="1" source="EUwqJAAsOdJ6edNQOykV-84" target="EUwqJAAsOdJ6edNQOykV-26" edge="1">
          <mxGeometry relative="1" as="geometry" />
        </mxCell>
        <mxCell id="EUwqJAAsOdJ6edNQOykV-84" value="bitrhdate" style="ellipse;whiteSpace=wrap;html=1;align=center;" parent="1" vertex="1">
          <mxGeometry x="526" y="2098.96" width="70" height="31" as="geometry" />
        </mxCell>
        <mxCell id="EUwqJAAsOdJ6edNQOykV-97" style="rounded=0;orthogonalLoop=1;jettySize=auto;html=1;entryX=0.5;entryY=0;entryDx=0;entryDy=0;endArrow=none;endFill=0;" parent="1" source="EUwqJAAsOdJ6edNQOykV-86" target="EUwqJAAsOdJ6edNQOykV-26" edge="1">
          <mxGeometry relative="1" as="geometry" />
        </mxCell>
        <mxCell id="EUwqJAAsOdJ6edNQOykV-86" value="age" style="ellipse;whiteSpace=wrap;html=1;align=center;dashed=1;" parent="1" vertex="1">
          <mxGeometry x="448" y="2105.96" width="71.25" height="30" as="geometry" />
        </mxCell>
        <mxCell id="EUwqJAAsOdJ6edNQOykV-103" style="rounded=0;orthogonalLoop=1;jettySize=auto;html=1;endArrow=none;endFill=0;entryX=0.5;entryY=0;entryDx=0;entryDy=0;" parent="1" source="EUwqJAAsOdJ6edNQOykV-87" target="EUwqJAAsOdJ6edNQOykV-26" edge="1">
          <mxGeometry relative="1" as="geometry" />
        </mxCell>
        <mxCell id="EUwqJAAsOdJ6edNQOykV-87" value="degree&lt;div&gt;program&lt;/div&gt;" style="ellipse;whiteSpace=wrap;html=1;align=center;" parent="1" vertex="1">
          <mxGeometry x="241" y="2063.96" width="67" height="28" as="geometry" />
        </mxCell>
        <mxCell id="EUwqJAAsOdJ6edNQOykV-101" style="rounded=0;orthogonalLoop=1;jettySize=auto;html=1;endArrow=none;endFill=0;" parent="1" source="EUwqJAAsOdJ6edNQOykV-88" target="EUwqJAAsOdJ6edNQOykV-26" edge="1">
          <mxGeometry relative="1" as="geometry" />
        </mxCell>
        <mxCell id="EUwqJAAsOdJ6edNQOykV-37" value="&lt;u&gt;SSN&lt;/u&gt;" style="ellipse;whiteSpace=wrap;html=1;align=center;" parent="1" vertex="1">
          <mxGeometry x="306" y="2101.96" width="67" height="28" as="geometry" />
        </mxCell>
        <mxCell id="EUwqJAAsOdJ6edNQOykV-78" value="sex" style="ellipse;whiteSpace=wrap;html=1;align=center;" parent="1" vertex="1">
          <mxGeometry x="330" y="2153.96" width="67" height="28" as="geometry" />
        </mxCell>
        <mxCell id="EUwqJAAsOdJ6edNQOykV-113" style="rounded=0;orthogonalLoop=1;jettySize=auto;html=1;entryX=0.5;entryY=0;entryDx=0;entryDy=0;endArrow=none;endFill=0;" parent="1" source="EUwqJAAsOdJ6edNQOykV-106" target="EUwqJAAsOdJ6edNQOykV-25" edge="1">
          <mxGeometry relative="1" as="geometry" />
        </mxCell>
        <mxCell id="EUwqJAAsOdJ6edNQOykV-106" value="office_phone" style="ellipse;whiteSpace=wrap;html=1;align=center;" parent="1" vertex="1">
          <mxGeometry x="976.75" y="2162.96" width="67" height="28" as="geometry" />
        </mxCell>
        <mxCell id="EUwqJAAsOdJ6edNQOykV-114" style="rounded=0;orthogonalLoop=1;jettySize=auto;html=1;endArrow=none;endFill=0;" parent="1" source="EUwqJAAsOdJ6edNQOykV-107" edge="1">
          <mxGeometry relative="1" as="geometry">
            <mxPoint x="872.75" y="2212.96" as="targetPoint" />
          </mxGeometry>
        </mxCell>
        <mxCell id="EUwqJAAsOdJ6edNQOykV-107" value="office_number" style="ellipse;whiteSpace=wrap;html=1;align=center;" parent="1" vertex="1">
          <mxGeometry x="835" y="2115.96" width="67" height="28" as="geometry" />
        </mxCell>
        <mxCell id="EUwqJAAsOdJ6edNQOykV-112" style="rounded=0;orthogonalLoop=1;jettySize=auto;html=1;endArrow=none;endFill=0;entryX=0.5;entryY=0;entryDx=0;entryDy=0;" parent="1" source="EUwqJAAsOdJ6edNQOykV-108" target="EUwqJAAsOdJ6edNQOykV-25" edge="1">
          <mxGeometry relative="1" as="geometry" />
        </mxCell>
        <mxCell id="EUwqJAAsOdJ6edNQOykV-108" value="code" style="ellipse;whiteSpace=wrap;html=1;align=center;" parent="1" vertex="1">
          <mxGeometry x="907.75" y="2118.96" width="67" height="28" as="geometry" />
        </mxCell>
        <mxCell id="EUwqJAAsOdJ6edNQOykV-111" style="rounded=0;orthogonalLoop=1;jettySize=auto;html=1;entryX=0.5;entryY=0;entryDx=0;entryDy=0;endArrow=none;endFill=0;" parent="1" source="EUwqJAAsOdJ6edNQOykV-109" target="EUwqJAAsOdJ6edNQOykV-25" edge="1">
          <mxGeometry relative="1" as="geometry" />
        </mxCell>
        <mxCell id="EUwqJAAsOdJ6edNQOykV-109" value="name" style="ellipse;whiteSpace=wrap;html=1;align=center;" parent="1" vertex="1">
          <mxGeometry x="760" y="2115.96" width="67" height="28" as="geometry" />
        </mxCell>
        <mxCell id="EUwqJAAsOdJ6edNQOykV-115" style="rounded=0;orthogonalLoop=1;jettySize=auto;html=1;endArrow=none;endFill=0;" parent="1" source="EUwqJAAsOdJ6edNQOykV-110" edge="1">
          <mxGeometry relative="1" as="geometry">
            <mxPoint x="872.75" y="2215.96" as="targetPoint" />
          </mxGeometry>
        </mxCell>
        <mxCell id="EUwqJAAsOdJ6edNQOykV-110" value="college" style="ellipse;whiteSpace=wrap;html=1;align=center;" parent="1" vertex="1">
          <mxGeometry x="987" y="2120.96" width="67" height="28" as="geometry" />
        </mxCell>
        <mxCell id="EUwqJAAsOdJ6edNQOykV-123" value="&lt;div&gt;Offering&lt;/div&gt;&lt;div&gt;Course&lt;/div&gt;" style="text;html=1;align=center;verticalAlign=middle;whiteSpace=wrap;rounded=0;" parent="1" vertex="1">
          <mxGeometry x="873" y="2289.96" width="60" height="30" as="geometry" />
        </mxCell>
        <mxCell id="EUwqJAAsOdJ6edNQOykV-124" value="(1,N)" style="text;html=1;align=center;verticalAlign=middle;whiteSpace=wrap;rounded=0;" parent="1" vertex="1">
          <mxGeometry x="812.75" y="2447.96" width="60" height="30" as="geometry" />
        </mxCell>
        <mxCell id="EUwqJAAsOdJ6edNQOykV-125" value="(1,1)" style="text;html=1;align=center;verticalAlign=middle;whiteSpace=wrap;rounded=0;" parent="1" vertex="1">
          <mxGeometry x="815" y="2255.96" width="60" height="30" as="geometry" />
        </mxCell>
        <mxCell id="P7TgxhgFr9sDiZiFOefg-8" style="rounded=0;orthogonalLoop=1;jettySize=auto;html=1;endArrow=none;endFill=0;entryX=0.5;entryY=1;entryDx=0;entryDy=0;" parent="1" source="EUwqJAAsOdJ6edNQOykV-127" target="EUwqJAAsOdJ6edNQOykV-24" edge="1">
          <mxGeometry relative="1" as="geometry">
            <mxPoint x="868" y="2520.96" as="targetPoint" />
          </mxGeometry>
        </mxCell>
        <mxCell id="EUwqJAAsOdJ6edNQOykV-127" value="&lt;u&gt;name&lt;/u&gt;" style="ellipse;whiteSpace=wrap;html=1;align=center;" parent="1" vertex="1">
          <mxGeometry x="745.75" y="2560.96" width="67" height="28" as="geometry" />
        </mxCell>
        <mxCell id="EUwqJAAsOdJ6edNQOykV-128" value="description" style="ellipse;whiteSpace=wrap;html=1;align=center;" parent="1" vertex="1">
          <mxGeometry x="968" y="2564.96" width="67" height="28" as="geometry" />
        </mxCell>
        <mxCell id="P7TgxhgFr9sDiZiFOefg-9" style="rounded=0;orthogonalLoop=1;jettySize=auto;html=1;endArrow=none;endFill=0;entryX=0.5;entryY=1;entryDx=0;entryDy=0;" parent="1" source="EUwqJAAsOdJ6edNQOykV-129" target="EUwqJAAsOdJ6edNQOykV-24" edge="1">
          <mxGeometry relative="1" as="geometry">
            <mxPoint x="873" y="2521.96" as="targetPoint" />
          </mxGeometry>
        </mxCell>
        <mxCell id="EUwqJAAsOdJ6edNQOykV-129" value="&lt;u&gt;number&lt;/u&gt;" style="ellipse;whiteSpace=wrap;html=1;align=center;" parent="1" vertex="1">
          <mxGeometry x="818.5" y="2561.96" width="67" height="28" as="geometry" />
        </mxCell>
        <mxCell id="P7TgxhgFr9sDiZiFOefg-12" style="rounded=0;orthogonalLoop=1;jettySize=auto;html=1;entryX=0.5;entryY=1;entryDx=0;entryDy=0;endArrow=none;endFill=0;" parent="1" target="EUwqJAAsOdJ6edNQOykV-24" edge="1">
          <mxGeometry relative="1" as="geometry">
            <mxPoint x="902.6790158094268" y="2618.00451944834" as="sourcePoint" />
          </mxGeometry>
        </mxCell>
        <mxCell id="EUwqJAAsOdJ6edNQOykV-130" value="semester_hours&lt;div&gt;_number&lt;/div&gt;" style="ellipse;whiteSpace=wrap;html=1;align=center;" parent="1" vertex="1">
          <mxGeometry x="811" y="2618" width="121" height="28" as="geometry" />
        </mxCell>
        <mxCell id="P7TgxhgFr9sDiZiFOefg-10" style="rounded=0;orthogonalLoop=1;jettySize=auto;html=1;entryX=0.5;entryY=1;entryDx=0;entryDy=0;endArrow=none;endFill=0;" parent="1" source="EUwqJAAsOdJ6edNQOykV-131" target="EUwqJAAsOdJ6edNQOykV-24" edge="1">
          <mxGeometry relative="1" as="geometry" />
        </mxCell>
        <mxCell id="EUwqJAAsOdJ6edNQOykV-131" value="level" style="ellipse;whiteSpace=wrap;html=1;align=center;" parent="1" vertex="1">
          <mxGeometry x="892" y="2561.96" width="67.25" height="29" as="geometry" />
        </mxCell>
        <mxCell id="P7TgxhgFr9sDiZiFOefg-6" style="rounded=0;orthogonalLoop=1;jettySize=auto;html=1;endArrow=none;endFill=0;exitX=1;exitY=0.5;exitDx=0;exitDy=0;entryX=0;entryY=0;entryDx=0;entryDy=0;" parent="1" source="P7TgxhgFr9sDiZiFOefg-2" target="EUwqJAAsOdJ6edNQOykV-24" edge="1">
          <mxGeometry relative="1" as="geometry">
            <mxPoint x="819" y="2474.96" as="targetPoint" />
          </mxGeometry>
        </mxCell>
        <mxCell id="P7TgxhgFr9sDiZiFOefg-2" value="수강한다." style="shape=rhombus;perimeter=rhombusPerimeter;whiteSpace=wrap;html=1;align=center;" parent="1" vertex="1">
          <mxGeometry x="592.25" y="2311.96" width="120" height="60" as="geometry" />
        </mxCell>
        <mxCell id="P7TgxhgFr9sDiZiFOefg-11" style="rounded=0;orthogonalLoop=1;jettySize=auto;html=1;endArrow=none;endFill=0;" parent="1" source="EUwqJAAsOdJ6edNQOykV-128" edge="1">
          <mxGeometry relative="1" as="geometry">
            <mxPoint x="869" y="2520.96" as="targetPoint" />
          </mxGeometry>
        </mxCell>
        <mxCell id="P7TgxhgFr9sDiZiFOefg-16" style="rounded=0;orthogonalLoop=1;jettySize=auto;html=1;endArrow=none;endFill=0;shape=link;" parent="1" source="P7TgxhgFr9sDiZiFOefg-13" target="P7TgxhgFr9sDiZiFOefg-15" edge="1">
          <mxGeometry relative="1" as="geometry" />
        </mxCell>
        <mxCell id="P7TgxhgFr9sDiZiFOefg-13" value="갖는다." style="shape=rhombus;double=1;perimeter=rhombusPerimeter;whiteSpace=wrap;html=1;align=center;" parent="1" vertex="1">
          <mxGeometry x="383.75" y="2362.96" width="120" height="60" as="geometry" />
        </mxCell>
        <mxCell id="P7TgxhgFr9sDiZiFOefg-47" style="edgeStyle=orthogonalEdgeStyle;rounded=0;orthogonalLoop=1;jettySize=auto;html=1;entryX=0;entryY=0.5;entryDx=0;entryDy=0;endArrow=none;endFill=0;" parent="1" source="P7TgxhgFr9sDiZiFOefg-15" target="P7TgxhgFr9sDiZiFOefg-46" edge="1">
          <mxGeometry relative="1" as="geometry" />
        </mxCell>
        <mxCell id="P7TgxhgFr9sDiZiFOefg-15" value="Grade" style="shape=ext;margin=3;double=1;whiteSpace=wrap;html=1;align=center;" parent="1" vertex="1">
          <mxGeometry x="397" y="2480.96" width="100" height="40" as="geometry" />
        </mxCell>
        <mxCell id="P7TgxhgFr9sDiZiFOefg-22" style="rounded=0;orthogonalLoop=1;jettySize=auto;html=1;entryX=0.5;entryY=1;entryDx=0;entryDy=0;endArrow=none;endFill=0;" parent="1" source="P7TgxhgFr9sDiZiFOefg-17" target="P7TgxhgFr9sDiZiFOefg-15" edge="1">
          <mxGeometry relative="1" as="geometry" />
        </mxCell>
        <mxCell id="P7TgxhgFr9sDiZiFOefg-17" value="granted_&lt;div&gt;student_&lt;/div&gt;" style="ellipse;whiteSpace=wrap;html=1;align=center;" parent="1" vertex="1">
          <mxGeometry x="298" y="2569.96" width="67" height="28" as="geometry" />
        </mxCell>
        <mxCell id="P7TgxhgFr9sDiZiFOefg-23" style="rounded=0;orthogonalLoop=1;jettySize=auto;html=1;endArrow=none;endFill=0;entryX=0.5;entryY=1;entryDx=0;entryDy=0;" parent="1" source="P7TgxhgFr9sDiZiFOefg-18" target="P7TgxhgFr9sDiZiFOefg-15" edge="1">
          <mxGeometry relative="1" as="geometry" />
        </mxCell>
        <mxCell id="P7TgxhgFr9sDiZiFOefg-18" value="&lt;div&gt;defined&lt;/div&gt;section" style="ellipse;whiteSpace=wrap;html=1;align=center;" parent="1" vertex="1">
          <mxGeometry x="363.25" y="2582.96" width="67" height="28" as="geometry" />
        </mxCell>
        <mxCell id="P7TgxhgFr9sDiZiFOefg-19" value="numberic&lt;div&gt;grade&lt;/div&gt;" style="ellipse;whiteSpace=wrap;html=1;align=center;" parent="1" vertex="1">
          <mxGeometry x="503.75" y="2582.96" width="67" height="28" as="geometry" />
        </mxCell>
        <mxCell id="P7TgxhgFr9sDiZiFOefg-24" style="rounded=0;orthogonalLoop=1;jettySize=auto;html=1;entryX=0.5;entryY=1;entryDx=0;entryDy=0;endArrow=none;endFill=0;" parent="1" source="P7TgxhgFr9sDiZiFOefg-20" target="P7TgxhgFr9sDiZiFOefg-15" edge="1">
          <mxGeometry relative="1" as="geometry" />
        </mxCell>
        <mxCell id="P7TgxhgFr9sDiZiFOefg-20" value="letter&lt;div&gt;grade&lt;/div&gt;" style="ellipse;whiteSpace=wrap;html=1;align=center;" parent="1" vertex="1">
          <mxGeometry x="434" y="2585.96" width="67" height="28" as="geometry" />
        </mxCell>
        <mxCell id="P7TgxhgFr9sDiZiFOefg-25" style="rounded=0;orthogonalLoop=1;jettySize=auto;html=1;entryX=0.489;entryY=0.998;entryDx=0;entryDy=0;entryPerimeter=0;endArrow=none;endFill=0;" parent="1" source="P7TgxhgFr9sDiZiFOefg-19" target="P7TgxhgFr9sDiZiFOefg-15" edge="1">
          <mxGeometry relative="1" as="geometry" />
        </mxCell>
        <mxCell id="P7TgxhgFr9sDiZiFOefg-31" style="edgeStyle=orthogonalEdgeStyle;rounded=0;orthogonalLoop=1;jettySize=auto;html=1;entryX=0;entryY=0.5;entryDx=0;entryDy=0;endArrow=none;endFill=0;" parent="1" source="P7TgxhgFr9sDiZiFOefg-27" target="P7TgxhgFr9sDiZiFOefg-30" edge="1">
          <mxGeometry relative="1" as="geometry" />
        </mxCell>
        <mxCell id="P7TgxhgFr9sDiZiFOefg-27" value="has" style="shape=rhombus;perimeter=rhombusPerimeter;whiteSpace=wrap;html=1;align=center;" parent="1" vertex="1">
          <mxGeometry x="1006" y="2470.96" width="120" height="60" as="geometry" />
        </mxCell>
        <mxCell id="P7TgxhgFr9sDiZiFOefg-30" value="Section" style="whiteSpace=wrap;html=1;align=center;" parent="1" vertex="1">
          <mxGeometry x="1220" y="2480.96" width="100" height="40" as="geometry" />
        </mxCell>
        <mxCell id="P7TgxhgFr9sDiZiFOefg-37" style="rounded=0;orthogonalLoop=1;jettySize=auto;html=1;endArrow=none;endFill=0;entryX=0.5;entryY=1;entryDx=0;entryDy=0;" parent="1" source="P7TgxhgFr9sDiZiFOefg-32" target="P7TgxhgFr9sDiZiFOefg-30" edge="1">
          <mxGeometry relative="1" as="geometry" />
        </mxCell>
        <mxCell id="P7TgxhgFr9sDiZiFOefg-32" value="&lt;u&gt;number&lt;/u&gt;" style="ellipse;whiteSpace=wrap;html=1;align=center;" parent="1" vertex="1">
          <mxGeometry x="1176" y="2572.96" width="67" height="28" as="geometry" />
        </mxCell>
        <mxCell id="P7TgxhgFr9sDiZiFOefg-38" value="" style="rounded=0;orthogonalLoop=1;jettySize=auto;html=1;endArrow=none;endFill=0;entryX=0.5;entryY=1;entryDx=0;entryDy=0;" parent="1" source="P7TgxhgFr9sDiZiFOefg-33" target="P7TgxhgFr9sDiZiFOefg-30" edge="1">
          <mxGeometry relative="1" as="geometry" />
        </mxCell>
        <mxCell id="P7TgxhgFr9sDiZiFOefg-33" value="Instructor" style="ellipse;whiteSpace=wrap;html=1;align=center;" parent="1" vertex="1">
          <mxGeometry x="1248" y="2572.96" width="67" height="28" as="geometry" />
        </mxCell>
        <mxCell id="P7TgxhgFr9sDiZiFOefg-40" style="rounded=0;orthogonalLoop=1;jettySize=auto;html=1;entryX=0.5;entryY=1;entryDx=0;entryDy=0;endArrow=none;endFill=0;" parent="1" target="P7TgxhgFr9sDiZiFOefg-30" edge="1">
          <mxGeometry relative="1" as="geometry">
            <mxPoint x="1403.9578910973123" y="2576.999877002709" as="sourcePoint" />
          </mxGeometry>
        </mxCell>
        <mxCell id="P7TgxhgFr9sDiZiFOefg-34" value="semester" style="ellipse;whiteSpace=wrap;html=1;align=center;" parent="1" vertex="1">
          <mxGeometry x="1389" y="2572.96" width="67" height="28" as="geometry" />
        </mxCell>
        <mxCell id="P7TgxhgFr9sDiZiFOefg-39" style="rounded=0;orthogonalLoop=1;jettySize=auto;html=1;entryX=0.5;entryY=1;entryDx=0;entryDy=0;endArrow=none;endFill=0;" parent="1" source="P7TgxhgFr9sDiZiFOefg-35" target="P7TgxhgFr9sDiZiFOefg-30" edge="1">
          <mxGeometry relative="1" as="geometry" />
        </mxCell>
        <mxCell id="P7TgxhgFr9sDiZiFOefg-35" value="year" style="ellipse;whiteSpace=wrap;html=1;align=center;" parent="1" vertex="1">
          <mxGeometry x="1320" y="2572.96" width="67" height="28" as="geometry" />
        </mxCell>
        <mxCell id="P7TgxhgFr9sDiZiFOefg-41" value="N" style="text;html=1;align=center;verticalAlign=middle;whiteSpace=wrap;rounded=0;" parent="1" vertex="1">
          <mxGeometry x="1163" y="2472.96" width="60" height="30" as="geometry" />
        </mxCell>
        <mxCell id="P7TgxhgFr9sDiZiFOefg-42" value="1" style="text;html=1;align=center;verticalAlign=middle;whiteSpace=wrap;rounded=0;" parent="1" vertex="1">
          <mxGeometry x="914.75" y="2474.96" width="60" height="30" as="geometry" />
        </mxCell>
        <mxCell id="P7TgxhgFr9sDiZiFOefg-43" value="(0,N)" style="text;html=1;align=center;verticalAlign=middle;whiteSpace=wrap;rounded=0;" parent="1" vertex="1">
          <mxGeometry x="397" y="2271.96" width="60" height="27" as="geometry" />
        </mxCell>
        <mxCell id="P7TgxhgFr9sDiZiFOefg-45" value="(1,1)" style="text;html=1;align=center;verticalAlign=middle;whiteSpace=wrap;rounded=0;" parent="1" vertex="1">
          <mxGeometry x="392.25" y="2450.96" width="60" height="30" as="geometry" />
        </mxCell>
        <mxCell id="P7TgxhgFr9sDiZiFOefg-48" style="edgeStyle=orthogonalEdgeStyle;rounded=0;orthogonalLoop=1;jettySize=auto;html=1;entryX=0;entryY=0.5;entryDx=0;entryDy=0;endArrow=none;endFill=0;" parent="1" source="P7TgxhgFr9sDiZiFOefg-46" target="EUwqJAAsOdJ6edNQOykV-24" edge="1">
          <mxGeometry relative="1" as="geometry" />
        </mxCell>
        <mxCell id="P7TgxhgFr9sDiZiFOefg-46" value="포함된다." style="shape=rhombus;perimeter=rhombusPerimeter;whiteSpace=wrap;html=1;align=center;" parent="1" vertex="1">
          <mxGeometry x="579.5" y="2470.96" width="120" height="60" as="geometry" />
        </mxCell>
        <mxCell id="P7TgxhgFr9sDiZiFOefg-49" value="(1,N)" style="text;html=1;align=center;verticalAlign=middle;whiteSpace=wrap;rounded=0;" parent="1" vertex="1">
          <mxGeometry x="712.25" y="2390.96" width="60" height="30" as="geometry" />
        </mxCell>
        <mxCell id="P7TgxhgFr9sDiZiFOefg-50" value="(0,N)" style="text;html=1;align=center;verticalAlign=middle;whiteSpace=wrap;rounded=0;" parent="1" vertex="1">
          <mxGeometry x="488" y="2249.96" width="60" height="30" as="geometry" />
        </mxCell>
        <mxCell id="P7TgxhgFr9sDiZiFOefg-52" style="rounded=0;orthogonalLoop=1;jettySize=auto;html=1;entryX=0.5;entryY=0;entryDx=0;entryDy=0;endArrow=none;endFill=0;" parent="1" source="P7TgxhgFr9sDiZiFOefg-51" target="EUwqJAAsOdJ6edNQOykV-27" edge="1">
          <mxGeometry relative="1" as="geometry" />
        </mxCell>
        <mxCell id="P7TgxhgFr9sDiZiFOefg-51" value="start_date" style="ellipse;whiteSpace=wrap;html=1;align=center;" parent="1" vertex="1">
          <mxGeometry x="612" y="2049.96" width="67" height="28" as="geometry" />
        </mxCell>
        <mxCell id="0s3rhtRO72uhiAswZy-K-4" value="is_major&lt;div&gt;(1, 0)&lt;/div&gt;" style="ellipse;whiteSpace=wrap;html=1;align=center;" vertex="1" parent="1">
          <mxGeometry x="693" y="2047.96" width="69" height="30" as="geometry" />
        </mxCell>
        <mxCell id="0s3rhtRO72uhiAswZy-K-5" style="rounded=0;orthogonalLoop=1;jettySize=auto;html=1;entryX=0.549;entryY=0.031;entryDx=0;entryDy=0;entryPerimeter=0;endArrow=none;endFill=0;" edge="1" parent="1" source="0s3rhtRO72uhiAswZy-K-4" target="EUwqJAAsOdJ6edNQOykV-27">
          <mxGeometry relative="1" as="geometry" />
        </mxCell>
        <mxCell id="0s3rhtRO72uhiAswZy-K-7" value="(1,2)" style="text;html=1;align=center;verticalAlign=middle;whiteSpace=wrap;rounded=0;" vertex="1" parent="1">
          <mxGeometry x="501" y="2191.96" width="60" height="30" as="geometry" />
        </mxCell>
        <mxCell id="0s3rhtRO72uhiAswZy-K-8" value="(1, N)" style="text;html=1;align=center;verticalAlign=middle;whiteSpace=wrap;rounded=0;" vertex="1" parent="1">
          <mxGeometry x="779" y="2186.96" width="60" height="30" as="geometry" />
        </mxCell>
        <mxCell id="0s3rhtRO72uhiAswZy-K-9" value="&lt;div&gt;Offerred&lt;/div&gt;&lt;div&gt;Course&lt;/div&gt;" style="text;html=1;align=center;verticalAlign=middle;whiteSpace=wrap;rounded=0;" vertex="1" parent="1">
          <mxGeometry x="873" y="2420.96" width="60" height="30" as="geometry" />
        </mxCell>
        <mxCell id="0s3rhtRO72uhiAswZy-K-10" value="1" style="text;html=1;align=center;verticalAlign=middle;whiteSpace=wrap;rounded=0;" vertex="1" parent="1">
          <mxGeometry x="728" y="2474.96" width="71" height="30" as="geometry" />
        </mxCell>
        <mxCell id="0s3rhtRO72uhiAswZy-K-11" value="N" style="text;html=1;align=center;verticalAlign=middle;whiteSpace=wrap;rounded=0;" vertex="1" parent="1">
          <mxGeometry x="493.75" y="2474.96" width="60" height="30" as="geometry" />
        </mxCell>
        <mxCell id="0s3rhtRO72uhiAswZy-K-14" value="" style="endArrow=none;dashed=1;html=1;rounded=0;" edge="1" parent="1">
          <mxGeometry width="50" height="50" relative="1" as="geometry">
            <mxPoint x="306" y="2582.96" as="sourcePoint" />
            <mxPoint x="353" y="2581.96" as="targetPoint" />
          </mxGeometry>
        </mxCell>
        <mxCell id="0s3rhtRO72uhiAswZy-K-15" value="" style="endArrow=none;dashed=1;html=1;rounded=0;" edge="1" parent="1">
          <mxGeometry width="50" height="50" relative="1" as="geometry">
            <mxPoint x="308" y="2598.96" as="sourcePoint" />
            <mxPoint x="355" y="2597.96" as="targetPoint" />
          </mxGeometry>
        </mxCell>
        <mxCell id="0s3rhtRO72uhiAswZy-K-16" value="" style="endArrow=none;dashed=1;html=1;rounded=0;" edge="1" parent="1">
          <mxGeometry width="50" height="50" relative="1" as="geometry">
            <mxPoint x="373" y="2597.46" as="sourcePoint" />
            <mxPoint x="420" y="2596.46" as="targetPoint" />
          </mxGeometry>
        </mxCell>
        <mxCell id="0s3rhtRO72uhiAswZy-K-17" value="" style="endArrow=none;dashed=1;html=1;rounded=0;" edge="1" parent="1">
          <mxGeometry width="50" height="50" relative="1" as="geometry">
            <mxPoint x="373.25" y="2611.46" as="sourcePoint" />
            <mxPoint x="420.25" y="2610.46" as="targetPoint" />
          </mxGeometry>
        </mxCell>
      </root>
    </mxGraphModel>
  </diagram>
</mxfile>
